<svg xmlns="http://www.w3.org/2000/svg" viewBox="0 0 64 64">
  <defs>
    <linearGradient id="g" x1="0" y1="0" x2="1" y2="1">
      <stop offset="0%" stop-color="#38bdf8" />
      <stop offset="55%" stop-color="#f472b6" />
      <stop offset="100%" stop-color="#a78bfa" />
    </linearGradient>
    <linearGradient id="hi" x1="0" y1="0" x2="0" y2="1">
      <stop offset="0%" stop-color="#ffffff" stop-opacity="0.7" />
      <stop offset="100%" stop-color="#ffffff" stop-opacity="0" />
    </linearGradient>
  </defs>
  <rect x="3" y="3" width="58" height="58" rx="16" fill="url(#g)" />
  <rect x="3" y="3" width="58" height="22" rx="16" fill="url(#hi)" />
  <path d="M16 22h32a4 4 0 0 1 4 4v14a4 4 0 0 1-4 4H30l-8 7v-7h-6a4 4 0 0 1-4-4V26a4 4 0 0 1 4-4Z"
        fill="white" fill-opacity="0.92" />
  <circle cx="25" cy="33" r="2.4" fill="#0f172a" />
  <circle cx="32" cy="33" r="2.4" fill="#0f172a" />
  <circle cx="39" cy="33" r="2.4" fill="#0f172a" />
</svg>
